<svg xmlns="http://www.w3.org/2000/svg" style="display: none">
  <defs>
    <symbol id="icon-chevron-down" viewBox="0 0 24 24" fill="none" stroke="currentColor" stroke-width="1.5" stroke-linecap="round" stroke-linejoin="round">
      <polyline points="6 9 12 15 18 9"></polyline>
    </symbol>
    <symbol id="icon-chevron-right" viewBox="0 0 24 24" fill="none" stroke="currentColor" stroke-width="1.5" stroke-linecap="round" stroke-linejoin="round">
      <polyline points="9 6 15 12 9 18"></polyline>
    </symbol>
    <symbol id="icon-chevron-up" viewBox="0 0 24 24" fill="none" stroke="currentColor" stroke-width="1.5" stroke-linecap="round" stroke-linejoin="round">
      <polyline points="18 15 12 9 6 15"></polyline>
    </symbol>
    <symbol id="icon-menu" viewBox="0 0 24 24" fill="none" stroke="currentColor" stroke-width="1.5" stroke-linecap="round" stroke-linejoin="round">
      <line x1="3" y1="6" x2="21" y2="6"></line>
      <line x1="3" y1="12" x2="21" y2="12"></line>
      <line x1="3" y1="18" x2="21" y2="18"></line>
    </symbol>
    <symbol id="icon-x-close" viewBox="0 0 24 24" fill="none" stroke="currentColor" stroke-width="1.5" stroke-linecap="round" stroke-linejoin="round">
      <line x1="18" y1="6" x2="6" y2="18"></line>
      <line x1="6" y1="6" x2="18" y2="18"></line>
    </symbol>
    <symbol id="icon-arrow-external" viewBox="0 0 24 24" fill="none" stroke="currentColor" stroke-width="1.5" stroke-linecap="round" stroke-linejoin="round">
      <path d="M18 13v6a1 1 0 0 1-1 1H5a1 1 0 0 1-1-1V8a1 1 0 0 1 1-1h6"></path>
      <polyline points="15 3 21 3 21 9"></polyline>
      <line x1="10" y1="14" x2="21" y2="3"></line>
    </symbol>
    <symbol id="icon-search" viewBox="0 0 24 24" fill="none" stroke="currentColor" stroke-width="1.5" stroke-linecap="round" stroke-linejoin="round">
      <circle cx="11" cy="11" r="8"></circle>
      <path d="m21 21-4.35-4.35"></path>
    </symbol>
    <symbol id="icon-check" viewBox="0 0 24 24" fill="none" stroke="currentColor" stroke-width="1.5" stroke-linecap="round" stroke-linejoin="round">
      <polyline points="20 6 9 17 4 12"></polyline>
    </symbol>
    <symbol id="icon-x-mark" viewBox="0 0 24 24" fill="none" stroke="currentColor" stroke-width="1.5" stroke-linecap="round" stroke-linejoin="round">
      <circle cx="12" cy="12" r="10"></circle>
      <line x1="15" y1="9" x2="9" y2="15"></line>
      <line x1="9" y1="9" x2="15" y2="15"></line>
    </symbol>
    <symbol id="icon-alert-triangle" viewBox="0 0 24 24" fill="none" stroke="currentColor" stroke-width="1.5" stroke-linecap="round" stroke-linejoin="round">
      <path d="M10.29 3.86L1.82 18a2 2 0 0 0 1.71 3.05h16.94a2 2 0 0 0 1.71-3.05l-8.47-14.14a2 2 0 0 0-3.42 0z"></path>
      <line x1="12" y1="9" x2="12" y2="13"></line>
      <line x1="12" y1="17" x2="12.01" y2="17"></line>
    </symbol>
    <symbol id="icon-info-circle" viewBox="0 0 24 24" fill="none" stroke="currentColor" stroke-width="1.5" stroke-linecap="round" stroke-linejoin="round">
      <circle cx="12" cy="12" r="10"></circle>
      <line x1="12" y1="16" x2="12" y2="12"></line>
      <line x1="12" y1="8" x2="12.01" y2="8"></line>
    </symbol>
    <symbol id="icon-download" viewBox="0 0 24 24" fill="none" stroke="currentColor" stroke-width="1.5" stroke-linecap="round" stroke-linejoin="round">
      <path d="M21 15v4a2 2 0 0 1-2 2H5a2 2 0 0 1-2-2v-4"></path>
      <polyline points="7 10 12 15 17 10"></polyline>
      <line x1="12" y1="15" x2="12" y2="3"></line>
    </symbol>
    <symbol id="icon-copy" viewBox="0 0 24 24" fill="none" stroke="currentColor" stroke-width="1.5" stroke-linecap="round" stroke-linejoin="round">
      <rect x="9" y="9" width="13" height="13" rx="2" ry="2"></rect>
      <path d="M5 15H4a2 2 0 0 1-2-2V4a2 2 0 0 1 2-2h9a2 2 0 0 1 2 2v1"></path>
    </symbol>
    <symbol id="icon-edit" viewBox="0 0 24 24" fill="none" stroke="currentColor" stroke-width="1.5" stroke-linecap="round" stroke-linejoin="round">
      <path d="M11 4H4a2 2 0 0 0-2 2v14a2 2 0 0 0 2 2h14a2 2 0 0 0 2-2v-7"></path>
      <path d="M18.5 2.5a2.121 2.121 0 0 1 3 3L12 15l-4 1 1-4 9.5-9.5z"></path>
    </symbol>
    <symbol id="icon-trash-2" viewBox="0 0 24 24" fill="none" stroke="currentColor" stroke-width="1.5" stroke-linecap="round" stroke-linejoin="round">
      <polyline points="3 6 5 6 21 6"></polyline>
      <path d="M19 6v14a2 2 0 0 1-2 2H7a2 2 0 0 1-2-2V6m3 0V4a2 2 0 0 1 2-2h4a2 2 0 0 1 2 2v2"></path>
      <line x1="10" y1="11" x2="10" y2="17"></line>
      <line x1="14" y1="11" x2="14" y2="17"></line>
    </symbol>
    <symbol id="icon-plus" viewBox="0 0 24 24" fill="none" stroke="currentColor" stroke-width="1.5" stroke-linecap="round" stroke-linejoin="round">
      <line x1="12" y1="5" x2="12" y2="19"></line>
      <line x1="5" y1="12" x2="19" y2="12"></line>
    </symbol>
    <symbol id="icon-settings" viewBox="0 0 24 24" fill="none" stroke="currentColor" stroke-width="1.5" stroke-linecap="round" stroke-linejoin="round">
      <circle cx="12" cy="12" r="3"></circle>
      <path d="M12 1v6m0 6v6M4.22 4.22l4.24 4.24m2.12 2.12l4.24 4.24M1 12h6m6 0h6m-3.78 3.78l4.24-4.24m2.12-2.12l4.24-4.24"></path>
    </symbol>
    <symbol id="icon-reload" viewBox="0 0 24 24" fill="none" stroke="currentColor" stroke-width="1.5" stroke-linecap="round" stroke-linejoin="round">
      <polyline points="23 4 23 10 17 10"></polyline>
      <polyline points="1 20 1 14 7 14"></polyline>
      <path d="M3.51 9a9 9 0 0 1 14.85-3.36M20.49 15a9 9 0 0 1-14.85 3.36"></path>
    </symbol>
    <symbol id="icon-calendar" viewBox="0 0 24 24" fill="none" stroke="currentColor" stroke-width="1.5" stroke-linecap="round" stroke-linejoin="round">
      <rect x="3" y="4" width="18" height="18" rx="2" ry="2"></rect>
      <line x1="16" y1="2" x2="16" y2="6"></line>
      <line x1="8" y1="2" x2="8" y2="6"></line>
      <line x1="3" y1="10" x2="21" y2="10"></line>
    </symbol>
    <symbol id="icon-clock" viewBox="0 0 24 24" fill="none" stroke="currentColor" stroke-width="1.5" stroke-linecap="round" stroke-linejoin="round">
      <circle cx="12" cy="12" r="10"></circle>
      <polyline points="12 6 12 12 16 14"></polyline>
    </symbol>
    <symbol id="icon-user" viewBox="0 0 24 24" fill="none" stroke="currentColor" stroke-width="1.5" stroke-linecap="round" stroke-linejoin="round">
      <path d="M20 21v-2a4 4 0 0 0-4-4H8a4 4 0 0 0-4 4v2"></path>
      <circle cx="12" cy="7" r="4"></circle>
    </symbol>
    <symbol id="icon-folder" viewBox="0 0 24 24" fill="none" stroke="currentColor" stroke-width="1.5" stroke-linecap="round" stroke-linejoin="round">
      <path d="M22 19a2 2 0 0 1-2 2H4a2 2 0 0 1-2-2V5a2 2 0 0 1 2-2h5l2 3h9a2 2 0 0 1 2 2z"></path>
    </symbol>
    <symbol id="icon-image" viewBox="0 0 24 24" fill="none" stroke="currentColor" stroke-width="1.5" stroke-linecap="round" stroke-linejoin="round">
      <rect x="3" y="3" width="18" height="18" rx="2" ry="2"></rect>
      <circle cx="8.5" cy="8.5" r="1.5"></circle>
      <polyline points="21 15 16 10 5 21"></polyline>
    </symbol>
    <symbol id="icon-mail" viewBox="0 0 24 24" fill="none" stroke="currentColor" stroke-width="1.5" stroke-linecap="round" stroke-linejoin="round">
      <rect x="2" y="4" width="20" height="16" rx="2"></rect>
      <path d="m22 7-8.97 5.7a1.94 1.94 0 0 1-2.06 0L2 7"></path>
    </symbol>
    <symbol id="icon-phone" viewBox="0 0 24 24" fill="none" stroke="currentColor" stroke-width="1.5" stroke-linecap="round" stroke-linejoin="round">
      <path d="M22 16.92v3a2 2 0 0 1-2.18 2 19.79 19.79 0 0 1-8.63-3.07 19.5 19.5 0 0 1-6-6 19.79 19.79 0 0 1-3.07-8.67A2 2 0 0 1 4.11 2h3a2 2 0 0 1 2 1.72 12.84 12.84 0 0 0 .7 2.81 2 2 0 0 1-.45 2.11L8.09 9.91a16 16 0 0 0 6 6l1.27-1.27a2 2 0 0 1 2.11-.45 12.84 12.84 0 0 0 2.81.7A2 2 0 0 1 22 16.92z"></path>
    </symbol>
  </defs>
</svg>